<?xml version="1.0" standalone="no"?><!DOCTYPE svg PUBLIC "-//W3C//DTD SVG 1.1//EN" "http://www.w3.org/Graphics/SVG/1.1/DTD/svg11.dtd"><svg t="1744978619851" class="icon" viewBox="0 0 1024 1024" version="1.1" xmlns="http://www.w3.org/2000/svg" p-id="7323" xmlns:xlink="http://www.w3.org/1999/xlink" width="200" height="200"><path d="M320 0h384c176.736 0 320 143.264 320 320v384c0 176.736-143.264 320-320 320H320C143.264 1024 0 880.736 0 704V320C0 143.264 143.264 0 320 0z" fill="#FF4E00" p-id="7324"></path><path d="M588.8 730.112c129.536 23.808 194.976 20.64 289.536-9.952 94.528-30.592 94.528-30.592 145.664-75.264V704c0 176.736-143.264 320-320 320H320C143.264 1024 0 880.736 0 704v-47.456c100.576-59.008 269.152-6.304 294.336 0 25.184 6.272 164.96 49.76 294.464 73.568z" fill="#FF6624" p-id="7325"></path><path d="M798.24 787.008c122.24 18.56 224.8-54.24 222.912-40.224C1000.256 903.264 866.24 1024 704 1024H320c-142.464 0-263.168-93.088-304.64-221.76-9.984-30.944 251.84-72 411.2-55.456 159.36 16.544 249.408 21.696 371.68 40.224z" fill="#FF804A" p-id="7326"></path><path d="M902.272 804c77.76-17.088 91.424-20.064 111.68-20.064C978.432 921.984 853.12 1024 704 1024H320c-142.944 0-264-93.696-305.056-223.04a317.536 317.536 0 0 1-6.272-22.656c-5.664-23.84 119.488 96.96 267.84 117.92 148.352 20.992 192.704 7.808 274.496-11.936 81.792-19.712 273.504-63.168 351.264-80.288z" fill="#FF9E75" p-id="7327"></path><path d="M710.624 224H351.04c-15.296 0-29.984 6.016-40.704 16.544a55.36 55.36 0 0 0-16.672 39.776v32.48h21.6c28.576 0 51.936 22.4 51.936 49.792 0 27.392-23.36 49.824-51.936 49.824h-21.6v49.792h21.6c28.576 0 51.936 22.4 51.936 49.792 0 27.392-23.36 49.792-51.936 49.792h-21.6v49.792h21.6c28.576 0 51.936 22.4 51.936 49.824 0 27.36-23.36 49.792-51.936 49.792h-21.6v32.48c0 30.944 25.28 56.32 57.376 56.32h359.584c15.296 0 29.952-6.016 40.672-16.544A55.36 55.36 0 0 0 768 743.68V279.872C768 248.928 742.336 224 710.624 224z m-133.568 357.568v45.248c0 8.512-7.552 15.424-16.832 15.424-9.28 0-16.832-6.912-16.832-15.424v-45.248h-55.36c-9.28 0-16.832-6.912-16.832-15.456 0-8.512 7.52-15.424 16.832-15.424h55.36v-35.328h-55.36c-9.28 0-16.832-6.912-16.832-15.424 0-8.544 7.52-15.456 16.832-15.456h48.32l-0.096-0.128-48.16-44.16a14.592 14.592 0 0 1 0-21.92 17.888 17.888 0 0 1 23.84 0l48.16 44.16 0.128 0.16 0.128-0.128 48.16-44.16a18.016 18.016 0 0 1 23.84 0 14.624 14.624 0 0 1 0 21.824l-48.16 44.16 48.224 0.128c9.28 0 16.832 6.912 16.832 15.456 0 8.512-7.52 15.424-16.832 15.424h-55.36v35.328h55.36c9.28 0 16.832 6.912 16.832 15.424 0 8.608-7.52 15.52-16.832 15.52h-55.36z m-256.128-193.92H276.16A19.84 19.84 0 0 1 256 368.32v-11.04a19.84 19.84 0 0 1 20.192-19.392h44.736a19.84 19.84 0 0 1 20.192 19.392v11.04a19.84 19.84 0 0 1-20.192 19.392z m0 149.28H276.16A19.84 19.84 0 0 1 256 517.568v-11.072a19.84 19.84 0 0 1 20.192-19.36h44.736a19.84 19.84 0 0 1 20.192 19.36v11.072a19.84 19.84 0 0 1-20.192 19.36z m0 149.408H276.16A19.84 19.84 0 0 1 256 666.944v-11.04a19.84 19.84 0 0 1 20.192-19.392h44.736a19.84 19.84 0 0 1 20.192 19.392v11.04a19.84 19.84 0 0 1-20.192 19.392z" fill="#FFFFFF" p-id="7328"></path></svg>