<?xml version="1.0" standalone="no"?>
<svg xmlns="http://www.w3.org/2000/svg" width="48" height="48"><rect width="48" height="48" opacity="0"></rect><g><path d="M25.87 12Q25.44 11.57 24.82 11.57Q24.19 11.57 23.76 12Q23.28 12.48 23.28 13.1Q23.28 13.73 23.76 14.16L31.97 22.37L13.58 22.37Q12.96 22.37 12.53 22.8Q12.1 23.23 12.1 23.86Q12.1 24.48 12.53 24.94Q12.96 25.39 13.58 25.39L31.87 25.39L23.76 33.46Q23.33 33.94 23.33 34.56Q23.33 35.18 23.76 35.57Q24.19 36.05 24.82 36.05Q25.44 36.05 25.87 35.57L35.9 25.58Q36.62 24.86 36.62 23.83Q36.62 22.8 35.9 22.08L25.87 12Z" fill="rgba(0,0,0,0.4)"></path></g><g><path d="M24 2.02Q18.05 2.02 12.98 4.97Q7.92 7.92 4.97 12.98Q2.02 18.05 2.02 24Q2.02 29.95 4.97 35.02Q7.92 40.08 12.98 43.03Q18.05 45.98 24 45.98Q29.95 45.98 35.02 43.03Q40.08 40.08 43.03 35.02Q45.98 29.95 45.98 24Q45.98 18.05 43.03 12.98Q40.08 7.92 35.02 4.97Q29.95 2.02 24 2.02ZM24 43.01Q18.86 43.01 14.5 40.44Q10.13 37.87 7.56 33.5Q4.99 29.14 4.99 24Q4.99 18.86 7.56 14.5Q10.13 10.13 14.5 7.56Q18.86 4.99 24 4.99Q29.14 4.99 33.5 7.56Q37.87 10.13 40.44 14.5Q43.01 18.86 43.01 24Q43.01 29.14 40.44 33.5Q37.87 37.87 33.5 40.44Q29.14 43.01 24 43.01Z" fill="rgba(0,0,0,0.4)"></path></g></svg>