<?xml version="1.0" standalone="no"?>
<svg xmlns="http://www.w3.org/2000/svg" width="48" height="48"><rect width="48" height="48" opacity="0"></rect><g><path d="M16.13 22.61L24.24 14.5Q24.67 14.06 24.67 13.44Q24.67 12.82 24.24 12.38Q23.81 11.95 23.18 11.95Q22.56 11.95 22.13 12.38L12.1 22.42Q11.38 23.14 11.38 24.17Q11.38 25.2 12.1 25.92L22.13 35.9L22.22 36Q22.66 36.38 23.26 36.36Q23.86 36.34 24.24 35.9Q24.72 35.52 24.72 34.9Q24.72 34.27 24.24 33.84L16.03 25.58L34.42 25.58Q35.04 25.58 35.47 25.15Q35.9 24.72 35.9 24.1Q35.9 23.47 35.47 23.04Q35.04 22.61 34.42 22.61Z" fill="rgba(0,0,0,0.4)"></path></g><g><path d="M24 2.02Q18.05 2.02 12.98 4.97Q7.92 7.92 4.97 12.98Q2.02 18.05 2.02 24Q2.02 29.95 4.97 35.02Q7.92 40.08 12.98 43.03Q18.05 45.98 24 45.98Q29.95 45.98 35.02 43.03Q40.08 40.08 43.03 35.02Q45.98 29.95 45.98 24Q45.98 18.05 43.03 12.98Q40.08 7.92 35.02 4.97Q29.95 2.02 24 2.02ZM24 43.01Q18.86 43.01 14.5 40.44Q10.13 37.87 7.56 33.5Q4.99 29.14 4.99 24Q4.99 18.86 7.56 14.5Q10.13 10.13 14.5 7.56Q18.86 4.99 24 4.99Q29.14 4.99 33.5 7.56Q37.87 10.13 40.44 14.5Q43.01 18.86 43.01 24Q43.01 29.14 40.44 33.5Q37.87 37.87 33.5 40.44Q29.14 43.01 24 43.01Z" fill="rgba(0,0,0,0.4)"></path></g></svg>