<?xml version="1.0" standalone="no"?><!DOCTYPE svg PUBLIC "-//W3C//DTD SVG 1.1//EN" "http://www.w3.org/Graphics/SVG/1.1/DTD/svg11.dtd"><svg t="1749434678511" class="icon" viewBox="0 0 1024 1024" version="1.1" xmlns="http://www.w3.org/2000/svg" p-id="4254" xmlns:xlink="http://www.w3.org/1999/xlink" width="200" height="200"><path d="M512 128a382.6 382.6 0 1 1-149.45 30.15A381.54 381.54 0 0 1 512 128m0-64C264.58 64 64 264.58 64 512s200.58 448 448 448 448-200.58 448-448S759.42 64 512 64z" p-id="4255"></path><path d="M192 512l288-256v512L192 512zM480 416v192c121 0 232.25 28.42 320 96-11.41-160.89-150.3-288-320-288z" p-id="4256"></path></svg>