<?xml version="1.0" standalone="no"?><!DOCTYPE svg PUBLIC "-//W3C//DTD SVG 1.1//EN" "http://www.w3.org/Graphics/SVG/1.1/DTD/svg11.dtd"><svg t="1745228045977" class="icon" viewBox="0 0 1024 1024" version="1.1" xmlns="http://www.w3.org/2000/svg" p-id="8486" xmlns:xlink="http://www.w3.org/1999/xlink" width="200" height="200"><path d="M512.161838 72.02467A439.967844 439.967844 0 1 1 72.24544 511.941068 440.43086 440.43086 0 0 1 512.161838 72.02467m0-72.02467A511.992515 511.992515 0 1 0 1024.000014 511.941068 511.941068 511.941068 0 0 0 512.161838 0z" p-id="8487"></path><path d="M27.702731 693.785825m25.428188-25.428188l204.844248-204.844248q25.428188-25.428188 50.856377 0l0 0q25.428188 25.428188 0 50.856377l-204.844248 204.844248q-25.428188 25.428188-50.856377 0l0 0q-25.428188-25.428188 0-50.856377Z" p-id="8488"></path><path d="M395.707016 636.847934m25.428188-25.428189l204.844248-204.844248q25.428188-25.428188 50.856377 0l0 0q25.428188 25.428188 0 50.856377l-204.844248 204.844248q-25.428188 25.428188-50.856377 0l0 0q-25.428188-25.428188 0-50.856377Z" p-id="8489"></path><path d="M240.336928 481.361593m25.428188-25.428188l0 0q25.428188-25.428188 50.856377 0l155.370234 155.370233q25.428188 25.428188 0 50.856377l0 0q-25.428188 25.428188-50.856377 0l-155.370234-155.370233q-25.428188-25.428188 0-50.856377Z" p-id="8490"></path><path d="M487.467666 394.849533m35.960889 0l128.564036 0q35.960889 0 35.960889 35.960889l0 0q0 35.960889-35.960889 35.960889l-128.564036 0q-35.960889 0-35.960889-35.960889l0 0q0-35.960889 35.960889-35.960889Z" p-id="8491"></path><path d="M616.649057 395.466887m35.960889 0l0 0q35.960889 0 35.960889 35.960889l0 128.564037q0 35.960889-35.960889 35.960889l0 0q-35.960889 0-35.960889-35.960889l0-128.564037q0-35.960889 35.960889-35.960889Z" p-id="8492"></path></svg>